#tb 0: 1/1000
0,          0,          0,        0,    65856, 3ffc096f1b42b4d319d4a9efbefc7625
0,         33,         33,        0,    65856, 78b3655d5cad30fa6b2c2d8fd29463de
0,         66,         66,        0,    65856, ab197553d9599b2a03aff62d1d694848
0,        100,        100,        0,    65856, be368d1f3d3fcc710565b5433940f0df
0,        133,        133,        0,    65856, 374c5db60ea9c110b871bb45be0efff1
0,        166,        166,        0,    65856, ec50085400d626de5833bc0a94d9941f
0,        200,        200,        0,    65856, d4ae69937e2a8d9bf2023d4215749635
0,        233,        233,        0,    65856, 9b0b81eb6d62b8014e0639932fe35bc0
0,        266,        266,        0,    65856, cd02d0cc268e6b6df0b2dbd3f3b137e6
0,        300,        300,        0,    65856, 5322ba1085c114f93534e1761a0d8aa1
